<svg version="1.1" id="Layer_1" xmlns="http://www.w3.org/2000/svg" xmlns:xlink="http://www.w3.org/1999/xlink" x="0px" y="0px"
	 width="100%" viewBox="0 0 512 512" enable-background="new 0 0 512 512" xml:space="preserve">
<path fill="#000000" opacity="1.000000" stroke="none" 
	d="
M513.000000,369.000000 
	C513.000000,416.978363 513.000000,464.956757 513.000000,512.967529 
	C342.431885,512.967529 171.863770,512.967529 1.000000,512.967529 
	C1.000000,409.645416 1.000000,306.290558 1.364322,202.434540 
	C1.886811,201.985184 2.057936,202.013412 2.201312,202.092163 
	C32.588284,218.783188 62.965878,235.491318 93.369858,252.151306 
	C96.403389,253.813538 97.073959,256.226349 97.067688,259.522888 
	C96.976097,307.680328 97.131828,355.838684 96.878670,403.994965 
	C96.837112,411.900146 100.045570,417.839478 106.015678,421.684753 
	C114.032501,426.848328 122.521904,431.637421 131.402039,435.036469 
	C162.467865,446.927368 195.273117,449.250153 228.063644,450.852570 
	C239.642014,451.418427 251.298691,450.217590 262.922913,450.045013 
	C285.210541,449.714050 307.189453,446.796387 328.875885,441.886017 
	C344.109924,438.436676 358.940979,433.759827 372.418060,425.387482 
	C382.741150,418.974426 387.117981,409.990143 387.072479,397.993561 
	C386.897430,351.836243 387.058533,305.677643 386.902893,259.520172 
	C386.889252,255.468552 388.180023,252.994644 391.603699,251.168213 
	C398.481995,247.498917 405.303375,243.721939 412.121521,239.941238 
	C426.916290,231.737457 441.672180,223.463333 456.490479,215.302414 
	C462.027771,212.252869 467.694489,209.438324 473.582428,206.370621 
	C473.818512,207.797653 473.969482,208.284851 473.969757,208.772141 
	C473.987732,239.766220 473.960541,270.760376 474.054657,301.754211 
	C474.063324,304.615601 473.040588,305.675476 470.330780,306.463623 
	C463.501923,308.449829 457.642487,312.406219 455.480957,319.330505 
	C450.944000,333.864380 446.929688,348.573822 443.169769,363.330658 
	C441.953125,368.105743 444.089508,369.965149 449.187378,369.976715 
	C467.683807,370.018646 486.180573,370.036072 504.676697,369.951355 
	C507.452515,369.938660 510.225647,369.331940 513.000000,369.000000 
z"/>
<path fill="#000000" opacity="1.000000" stroke="none" 
	d="
M1.000000,194.000000 
	C1.000000,129.692993 1.000000,65.385994 1.000000,1.039498 
	C171.570465,1.039498 342.140961,1.039498 513.000000,1.039498 
	C513.000000,119.355194 513.000000,237.710617 512.623840,356.509766 
	C511.868896,356.454224 511.293610,356.008514 511.140656,355.447601 
	C508.717255,346.560120 506.308929,337.668091 503.976349,328.756378 
	C501.021149,317.465637 496.115814,308.011688 483.052368,305.531281 
	C483.016846,296.737335 483.017731,288.411469 482.998260,280.085663 
	C482.935150,253.113647 482.864594,226.141632 482.699249,198.822144 
	C481.553314,196.904861 480.856781,194.759613 479.395050,193.866058 
	C473.460693,190.238251 467.308807,186.963043 461.205627,183.615326 
	C440.110626,172.044266 418.962280,160.569931 397.908936,148.923782 
	C368.310516,132.550797 338.805817,116.008492 309.209717,99.631317 
	C287.869476,87.822571 266.486267,76.088982 244.987030,64.574326 
	C243.129608,63.579517 239.801025,63.624557 237.927628,64.627815 
	C216.723892,75.983025 195.664169,87.607414 174.579697,99.184898 
	C158.154083,108.204216 141.729782,117.226227 125.337646,126.306198 
	C104.012314,138.118790 82.718811,149.988861 61.412762,161.836273 
	C47.213039,169.732147 33.071442,177.735138 18.789328,185.479034 
	C13.016628,188.609039 6.938910,191.176529 1.000000,194.000000 
z"/>
<path fill="#290069" opacity="1.000000" stroke="none" 
	d="
M483.079498,305.999390 
	C496.115814,308.011688 501.021149,317.465637 503.976349,328.756378 
	C506.308929,337.668091 508.717255,346.560120 511.140656,355.447601 
	C511.293610,356.008514 511.868896,356.454224 512.623840,356.976746 
	C513.000000,360.692902 513.000000,364.385834 513.000000,368.539368 
	C510.225647,369.331940 507.452515,369.938660 504.676697,369.951355 
	C486.180573,370.036072 467.683807,370.018646 449.187378,369.976715 
	C444.089508,369.965149 441.953125,368.105743 443.169769,363.330658 
	C446.929688,348.573822 450.944000,333.864380 455.480957,319.330505 
	C457.642487,312.406219 463.501923,308.449829 470.330780,306.463623 
	C473.040588,305.675476 474.063324,304.615601 474.054657,301.754211 
	C473.960541,270.760376 473.987732,239.766220 473.969757,208.772141 
	C473.969482,208.284851 473.818512,207.797653 473.582428,206.370621 
	C467.694489,209.438324 462.027771,212.252869 456.490479,215.302414 
	C441.672180,223.463333 426.916290,231.737457 412.121521,239.941238 
	C405.303375,243.721939 398.481995,247.498917 391.603699,251.168213 
	C388.180023,252.994644 386.889252,255.468552 386.902893,259.520172 
	C387.058533,305.677643 386.897430,351.836243 387.072479,397.993561 
	C387.117981,409.990143 382.741150,418.974426 372.418060,425.387482 
	C358.940979,433.759827 344.109924,438.436676 328.875885,441.886017 
	C307.189453,446.796387 285.210541,449.714050 262.922913,450.045013 
	C251.298691,450.217590 239.642014,451.418427 228.063644,450.852570 
	C195.273117,449.250153 162.467865,446.927368 131.402039,435.036469 
	C122.521904,431.637421 114.032501,426.848328 106.015678,421.684753 
	C100.045570,417.839478 96.837112,411.900146 96.878670,403.994965 
	C97.131828,355.838684 96.976097,307.680328 97.067688,259.522888 
	C97.073959,256.226349 96.403389,253.813538 93.369858,252.151306 
	C62.965878,235.491318 32.588284,218.783188 2.201312,202.092163 
	C2.057936,202.013412 1.886811,201.985184 1.364322,201.966675 
	C1.000000,199.629440 1.000000,197.258896 1.000000,194.444168 
	C6.938910,191.176529 13.016628,188.609039 18.789328,185.479034 
	C33.071442,177.735138 47.213039,169.732147 61.412762,161.836273 
	C82.718811,149.988861 104.012314,138.118790 125.337646,126.306198 
	C141.729782,117.226227 158.154083,108.204216 174.579697,99.184898 
	C195.664169,87.607414 216.723892,75.983025 237.927628,64.627815 
	C239.801025,63.624557 243.129608,63.579517 244.987030,64.574326 
	C266.486267,76.088982 287.869476,87.822571 309.209717,99.631317 
	C338.805817,116.008492 368.310516,132.550797 397.908936,148.923782 
	C418.962280,160.569931 440.110626,172.044266 461.205627,183.615326 
	C467.308807,186.963043 473.460693,190.238251 479.395050,193.866058 
	C480.856781,194.759613 481.553314,196.904861 482.510437,199.170715 
	C482.284882,200.683441 482.033539,201.500046 482.032990,202.316803 
	C482.010345,235.459076 481.997070,268.601410 482.052826,301.743561 
	C482.055237,303.162750 482.722137,304.580811 483.079498,305.999390 
M132.610992,273.267822 
	C123.766029,268.492004 114.921074,263.716156 105.555916,258.659424 
	C105.288689,260.807892 105.028511,261.925720 105.028023,263.043701 
	C105.007866,309.696655 104.927605,356.350037 105.189125,403.001526 
	C105.207558,406.290649 106.882286,410.672424 109.323425,412.626892 
	C115.218163,417.346375 121.613205,421.912903 128.533554,424.796051 
	C155.575928,436.062622 184.327393,440.311615 213.246078,441.707581 
	C245.646500,443.271637 278.216339,443.218567 310.258545,436.832764 
	C323.742706,434.145477 336.911133,429.874023 350.956879,426.171875 
	C357.437439,422.839722 364.118774,419.839294 370.338287,416.075714 
	C375.808136,412.765717 378.063354,407.420441 378.049469,400.869995 
	C377.952850,355.224884 378.001709,309.579498 377.984711,263.934174 
	C377.984131,262.371063 377.780426,260.808014 377.621460,258.528687 
	C375.241364,259.792145 373.505524,260.681702 371.798920,261.624176 
	C330.405853,284.483337 288.976929,307.278198 247.681396,330.312256 
	C243.193817,332.815338 239.837646,332.794495 235.364471,330.295776 
	C201.352356,311.296509 167.191147,292.564178 132.610992,273.267822 
M294.740936,294.528656 
	C296.397064,293.772217 298.110901,293.120483 299.700745,292.243866 
	C330.577454,275.218903 361.453156,258.192047 392.300446,241.113861 
	C414.996002,228.548767 437.650452,215.909515 460.715088,203.138428 
	C460.832153,202.900696 460.949249,202.662964 461.066315,202.425232 
	C460.669647,202.394760 460.272949,202.364288 458.957306,202.270432 
	C388.160126,202.256836 317.362915,202.244232 246.565735,202.224289 
	C244.735001,202.223785 242.757431,202.558792 241.116531,201.978683 
	C239.595123,201.440811 237.216125,199.653961 237.373215,198.827164 
	C237.676956,197.228546 239.236023,195.341629 240.763443,194.643692 
	C242.444839,193.875412 244.675903,194.232346 246.667526,194.231949 
	C315.965729,194.218323 385.263916,194.220398 454.562134,194.220261 
	C456.352051,194.220261 458.141968,194.220261 459.931854,194.220261 
	C459.364563,192.704102 458.840485,192.296234 458.266388,191.978821 
	C387.162689,152.665146 316.047638,113.372040 244.977203,73.998314 
	C242.230240,72.476456 240.148346,72.884758 237.614807,74.304649 
	C223.381622,82.281540 209.069672,90.117760 194.796448,98.023361 
	C157.513092,118.673752 120.235886,139.335251 82.297485,160.199905 
	C59.671177,172.716385 37.044868,185.232849 13.565041,198.221466 
	C16.703449,200.042908 18.677460,201.236511 20.694597,202.352158 
	C60.498501,224.366653 100.307289,246.372299 140.115356,268.379242 
	C172.486893,286.275085 204.880081,304.132019 237.196915,322.126099 
	C240.356186,323.885162 242.871368,323.872437 245.954590,322.079468 
	C253.586411,317.641327 261.426086,313.562256 269.101746,309.197418 
	C277.472443,304.437286 285.752472,299.517731 294.740936,294.528656 
M492.796997,361.997437 
	C496.096527,361.997437 499.396057,361.997437 502.994110,361.997437 
	C502.904694,360.267853 503.071625,358.920074 502.735352,357.712402 
	C499.905762,347.550598 496.973083,337.417572 494.093292,327.269684 
	C491.635498,318.608978 485.388397,313.716400 477.057037,313.968048 
	C468.877716,314.215118 463.280182,319.186371 460.989990,327.924255 
	C458.845215,336.107391 456.463135,344.228119 454.230469,352.388580 
	C450.896973,364.572693 451.488678,361.493164 461.380829,362.042206 
	C464.835297,362.233917 466.140442,361.040527 466.035187,357.497681 
	C465.827515,350.509033 465.764496,343.497528 466.152008,336.523834 
	C466.239502,334.949921 468.417236,333.492188 469.632812,331.980988 
	C471.051666,333.299316 472.829498,334.407318 473.767181,336.007599 
	C474.427307,337.134247 473.967926,338.930023 473.969727,340.427063 
	C473.978271,347.537445 473.973572,354.647797 473.973572,361.699829 
	C482.214386,362.333649 482.215424,362.333649 482.218170,355.025299 
	C482.220276,349.362671 482.204407,343.699982 482.226166,338.037445 
	C482.236603,335.324249 482.249084,332.197144 485.848083,332.089264 
	C489.484680,331.980316 490.272217,334.774506 490.241791,337.939819 
	C490.177734,344.601105 490.133423,351.265686 490.298248,357.923523 
	C490.331970,359.284363 491.318817,360.621643 492.796997,361.997437 
M462.518036,194.504044 
	C462.518036,194.504044 462.464020,194.522766 462.518036,194.504044 
z"/>
<path fill="#400080" opacity="1.000000" stroke="none" 
	d="
M483.052368,305.531281 
	C482.722137,304.580811 482.055237,303.162750 482.052826,301.743561 
	C481.997070,268.601410 482.010345,235.459076 482.032990,202.316803 
	C482.033539,201.500046 482.284882,200.683441 482.608063,199.518188 
	C482.864594,226.141632 482.935150,253.113647 482.998260,280.085663 
	C483.017731,288.411469 483.016846,296.737335 483.052368,305.531281 
z"/>
<path fill="#7B15FF" opacity="1.000000" stroke="none" 
	d="
M82.956223,159.992310 
	C120.235886,139.335251 157.513092,118.673752 194.796448,98.023361 
	C209.069672,90.117760 223.381622,82.281540 237.614807,74.304649 
	C240.148346,72.884758 242.230240,72.476456 244.977203,73.998314 
	C316.047638,113.372040 387.162689,152.665146 458.266388,191.978821 
	C458.840485,192.296234 459.364563,192.704102 459.931854,194.220261 
	C458.141968,194.220261 456.352051,194.220261 454.562134,194.220261 
	C385.263916,194.220398 315.965729,194.218323 246.667526,194.231949 
	C244.675903,194.232346 242.444839,193.875412 240.763443,194.643692 
	C239.236023,195.341629 237.676956,197.228546 237.373215,198.827164 
	C237.216125,199.653961 239.595123,201.440811 241.116531,201.978683 
	C242.757431,202.558792 244.735001,202.223785 246.565735,202.224289 
	C317.362915,202.244232 388.160126,202.256836 459.503174,202.556122 
	C460.140472,202.995667 460.231842,203.149506 460.323242,203.303329 
	C437.650452,215.909515 414.996002,228.548767 392.300446,241.113861 
	C361.453156,258.192047 330.577454,275.218903 299.700745,292.243866 
	C298.110901,293.120483 296.397064,293.772217 294.259888,294.293701 
	C290.846283,292.975525 287.949005,291.782745 284.975891,290.825470 
	C241.245453,276.744995 200.398483,256.908295 162.840012,230.318222 
	C135.033157,210.631973 109.516891,188.334686 85.692482,164.045639 
	C84.569809,162.901077 83.858902,161.352646 82.956223,159.992310 
z"/>
<path fill="#7B15FF" opacity="1.000000" stroke="none" 
	d="
M133.076370,273.748718 
	C167.191147,292.564178 201.352356,311.296509 235.364471,330.295776 
	C239.837646,332.794495 243.193817,332.815338 247.681396,330.312256 
	C288.976929,307.278198 330.405853,284.483337 371.798920,261.624176 
	C373.505524,260.681702 375.241364,259.792145 377.621460,258.528687 
	C377.780426,260.808014 377.984131,262.371063 377.984711,263.934174 
	C378.001709,309.579498 377.952850,355.224884 378.049469,400.869995 
	C378.063354,407.420441 375.808136,412.765717 370.338287,416.075714 
	C364.118774,419.839294 357.437439,422.839722 350.147034,426.178650 
	C343.562805,426.781128 337.799683,427.729767 332.012238,427.913300 
	C302.148987,428.860352 272.511261,427.544800 243.582611,418.947083 
	C209.551682,408.832947 181.438568,390.412170 161.503448,360.615143 
	C144.666565,335.449036 136.738525,307.046295 132.272018,277.487701 
	C132.093872,276.308777 132.788437,274.998047 133.076370,273.748718 
M369.052551,310.500000 
	C369.045013,301.525482 369.180542,292.546387 368.893066,283.580841 
	C368.843536,282.036621 367.282928,280.061066 365.865936,279.229645 
	C365.079987,278.768494 362.625244,279.897614 361.869446,280.974457 
	C361.032440,282.166962 361.081299,284.117554 361.078308,285.738647 
	C361.035431,309.005951 361.044983,332.273376 361.059448,355.540771 
	C361.060272,356.864044 360.837830,358.378571 361.390350,359.461792 
	C362.072174,360.798553 363.805634,362.895844 364.470062,362.689117 
	C366.128906,362.173004 367.736633,360.750122 368.781708,359.277313 
	C369.425659,358.369812 369.043793,356.702118 369.044830,355.375671 
	C369.056183,340.750458 369.052277,326.125214 369.052551,310.500000 
M369.059021,402.222931 
	C369.055603,396.414764 369.326080,390.585327 368.877838,384.811707 
	C368.747498,383.133087 366.818726,380.631744 365.265717,380.226410 
	C362.042358,379.385132 361.078705,382.013489 361.063568,384.814240 
	C361.030365,390.954102 361.052643,397.094299 361.042511,403.234344 
	C361.037903,406.040283 361.278259,408.921173 364.879761,409.056824 
	C368.901428,409.208282 369.081757,406.133118 369.059021,402.222931 
z"/>
<path fill="#4D00C6" opacity="1.000000" stroke="none" 
	d="
M82.626862,160.096100 
	C83.858902,161.352646 84.569809,162.901077 85.692482,164.045639 
	C109.516891,188.334686 135.033157,210.631973 162.840012,230.318222 
	C200.398483,256.908295 241.245453,276.744995 284.975891,290.825470 
	C287.949005,291.782745 290.846283,292.975525 293.925415,294.363220 
	C285.752472,299.517731 277.472443,304.437286 269.101746,309.197418 
	C261.426086,313.562256 253.586411,317.641327 245.954590,322.079468 
	C242.871368,323.872437 240.356186,323.885162 237.196915,322.126099 
	C204.880081,304.132019 172.486893,286.275085 140.115356,268.379242 
	C100.307289,246.372299 60.498501,224.366653 20.694597,202.352158 
	C18.677460,201.236511 16.703449,200.042908 13.565041,198.221466 
	C37.044868,185.232849 59.671177,172.716385 82.626862,160.096100 
z"/>
<path fill="#4D00C6" opacity="1.000000" stroke="none" 
	d="
M132.843689,273.508270 
	C132.788437,274.998047 132.093872,276.308777 132.272018,277.487701 
	C136.738525,307.046295 144.666565,335.449036 161.503448,360.615143 
	C181.438568,390.412170 209.551682,408.832947 243.582611,418.947083 
	C272.511261,427.544800 302.148987,428.860352 332.012238,427.913300 
	C337.799683,427.729767 343.562805,426.781128 349.780121,426.254028 
	C336.911133,429.874023 323.742706,434.145477 310.258545,436.832764 
	C278.216339,443.218567 245.646500,443.271637 213.246078,441.707581 
	C184.327393,440.311615 155.575928,436.062622 128.533554,424.796051 
	C121.613205,421.912903 115.218163,417.346375 109.323425,412.626892 
	C106.882286,410.672424 105.207558,406.290649 105.189125,403.001526 
	C104.927605,356.350037 105.007866,309.696655 105.028023,263.043701 
	C105.028511,261.925720 105.288689,260.807892 105.555916,258.659424 
	C114.921074,263.716156 123.766029,268.492004 132.843689,273.508270 
z"/>
<path fill="#FECD76" opacity="1.000000" stroke="none" 
	d="
M492.331635,361.983612 
	C491.318817,360.621643 490.331970,359.284363 490.298248,357.923523 
	C490.133423,351.265686 490.177734,344.601105 490.241791,337.939819 
	C490.272217,334.774506 489.484680,331.980316 485.848083,332.089264 
	C482.249084,332.197144 482.236603,335.324249 482.226166,338.037445 
	C482.204407,343.699982 482.220276,349.362671 482.218170,355.025299 
	C482.215424,362.333649 482.214386,362.333649 473.973572,361.699829 
	C473.973572,354.647797 473.978271,347.537445 473.969727,340.427063 
	C473.967926,338.930023 474.427307,337.134247 473.767181,336.007599 
	C472.829498,334.407318 471.051666,333.299316 469.632812,331.980988 
	C468.417236,333.492188 466.239502,334.949921 466.152008,336.523834 
	C465.764496,343.497528 465.827515,350.509033 466.035187,357.497681 
	C466.140442,361.040527 464.835297,362.233917 461.380829,362.042206 
	C451.488678,361.493164 450.896973,364.572693 454.230469,352.388580 
	C456.463135,344.228119 458.845215,336.107391 460.989990,327.924255 
	C463.280182,319.186371 468.877716,314.215118 477.057037,313.968048 
	C485.388397,313.716400 491.635498,318.608978 494.093292,327.269684 
	C496.973083,337.417572 499.905762,347.550598 502.735352,357.712402 
	C503.071625,358.920074 502.904694,360.267853 502.994110,361.997437 
	C499.396057,361.997437 496.096527,361.997437 492.331635,361.983612 
z"/>
<path fill="#5F0ECD" opacity="1.000000" stroke="none" 
	d="
M460.519165,203.220886 
	C460.231842,203.149506 460.140472,202.995667 459.962677,202.587830 
	C460.272949,202.364288 460.669647,202.394760 461.066315,202.425232 
	C460.949249,202.662964 460.832153,202.900696 460.519165,203.220886 
z"/>
<path fill="#44079A" opacity="1.000000" stroke="none" 
	d="
M462.491028,194.513397 
	C462.464020,194.522766 462.518036,194.504044 462.491028,194.513397 
z"/>
<path fill="#280068" opacity="1.000000" stroke="none" 
	d="
M369.052551,311.000000 
	C369.052277,326.125214 369.056183,340.750458 369.044830,355.375671 
	C369.043793,356.702118 369.425659,358.369812 368.781708,359.277313 
	C367.736633,360.750122 366.128906,362.173004 364.470062,362.689117 
	C363.805634,362.895844 362.072174,360.798553 361.390350,359.461792 
	C360.837830,358.378571 361.060272,356.864044 361.059448,355.540771 
	C361.044983,332.273376 361.035431,309.005951 361.078308,285.738647 
	C361.081299,284.117554 361.032440,282.166962 361.869446,280.974457 
	C362.625244,279.897614 365.079987,278.768494 365.865936,279.229645 
	C367.282928,280.061066 368.843536,282.036621 368.893066,283.580841 
	C369.180542,292.546387 369.045013,301.525482 369.052551,311.000000 
z"/>
<path fill="#29006B" opacity="1.000000" stroke="none" 
	d="
M369.057861,402.686096 
	C369.081757,406.133118 368.901428,409.208282 364.879761,409.056824 
	C361.278259,408.921173 361.037903,406.040283 361.042511,403.234344 
	C361.052643,397.094299 361.030365,390.954102 361.063568,384.814240 
	C361.078705,382.013489 362.042358,379.385132 365.265717,380.226410 
	C366.818726,380.631744 368.747498,383.133087 368.877838,384.811707 
	C369.326080,390.585327 369.055603,396.414764 369.057861,402.686096 
z"/>
</svg>